<svg xmlns="http://www.w3.org/2000/svg" xmlns:xlink="http://www.w3.org/1999/xlink" width="500" zoomAndPan="magnify" viewBox="0 0 375 374.999991" height="500" preserveAspectRatio="xMidYMid meet" version="1.0"><defs><g/><clipPath id="cea3603ca7"><path d="M 118 194 L 257 194 L 257 241.503906 L 118 241.503906 Z M 118 194 " clip-rule="nonzero"/></clipPath><clipPath id="f5f48b99b0"><path d="M 108.191406 170 L 267 170 L 267 199 L 108.191406 199 Z M 108.191406 170 " clip-rule="nonzero"/></clipPath><clipPath id="408f0ac1f8"><path d="M 157 72.003906 L 166 72.003906 L 166 118 L 157 118 Z M 157 72.003906 " clip-rule="nonzero"/></clipPath><clipPath id="29b1407d38"><path d="M 183 72.003906 L 192 72.003906 L 192 118 L 183 118 Z M 183 72.003906 " clip-rule="nonzero"/></clipPath><clipPath id="5a2db1a63b"><path d="M 209 72.003906 L 219 72.003906 L 219 118 L 209 118 Z M 209 72.003906 " clip-rule="nonzero"/></clipPath><clipPath id="f4d30d3b7f"><path d="M 269.234375 123.496094 L 293.984375 123.496094 L 293.984375 238.996094 L 269.234375 238.996094 Z M 269.234375 123.496094 " clip-rule="nonzero"/></clipPath><clipPath id="b81b12dd84"><path d="M 80 124 L 108 124 L 108 238 L 80 238 Z M 80 124 " clip-rule="nonzero"/></clipPath><clipPath id="13813f1fad"><path d="M 36.589844 182.386719 L 93.203125 121.351562 L 154.242188 177.964844 L 97.625 239.003906 Z M 36.589844 182.386719 " clip-rule="nonzero"/></clipPath><clipPath id="8681a1c956"><path d="M 36.589844 182.386719 L 93.203125 121.351562 L 154.242188 177.964844 L 97.625 239.003906 Z M 36.589844 182.386719 " clip-rule="nonzero"/></clipPath><clipPath id="8d533a8340"><path d="M 36.589844 182.386719 L 93.203125 121.351562 L 154.242188 177.964844 L 97.625 239.003906 Z M 36.589844 182.386719 " clip-rule="nonzero"/></clipPath><clipPath id="aded0da078"><path d="M 36.609375 182.367188 L 93.191406 121.367188 L 154.222656 177.980469 L 97.644531 238.980469 Z M 36.609375 182.367188 " clip-rule="nonzero"/></clipPath><clipPath id="aab76a5788"><path d="M 84 129 L 95 129 L 95 160 L 84 160 Z M 84 129 " clip-rule="nonzero"/></clipPath><clipPath id="99f5b5e748"><path d="M 36.589844 182.386719 L 93.203125 121.351562 L 154.242188 177.964844 L 97.625 239.003906 Z M 36.589844 182.386719 " clip-rule="nonzero"/></clipPath><clipPath id="41c00c51b6"><path d="M 36.589844 182.386719 L 93.203125 121.351562 L 154.242188 177.964844 L 97.625 239.003906 Z M 36.589844 182.386719 " clip-rule="nonzero"/></clipPath><clipPath id="a68091630c"><path d="M 36.589844 182.386719 L 93.203125 121.351562 L 154.242188 177.964844 L 97.625 239.003906 Z M 36.589844 182.386719 " clip-rule="nonzero"/></clipPath></defs><rect x="-37.5" width="450" fill="#ffffff" y="-37.499999" height="449.999989" fill-opacity="1"/><rect x="-37.5" width="450" fill="#ffffff" y="-37.499999" height="449.999989" fill-opacity="1"/><path fill="#000000" d="M 255.046875 174.554688 C 254.183594 174.554688 253.410156 173.945312 253.238281 173.0625 L 245.976562 135.800781 C 245.515625 133.4375 244.082031 130.914062 241.425781 130.914062 L 133.949219 130.914062 C 131.296875 130.914062 129.859375 133.4375 129.398438 135.800781 L 122.136719 173.0625 C 121.945312 174.0625 120.972656 174.714844 119.976562 174.519531 C 118.980469 174.324219 118.328125 173.355469 118.523438 172.355469 L 125.785156 135.089844 C 126.71875 130.308594 129.921875 127.21875 133.949219 127.21875 L 241.425781 127.21875 C 245.457031 127.21875 248.664062 130.308594 249.589844 135.089844 L 256.855469 172.355469 C 257.046875 173.355469 256.398438 174.324219 255.398438 174.519531 C 255.28125 174.542969 255.160156 174.554688 255.046875 174.554688 Z M 255.046875 174.554688 " fill-opacity="1" fill-rule="evenodd"/><g clip-path="url(#cea3603ca7)"><path fill="#000000" d="M 241.425781 241.546875 L 200.46875 241.546875 C 197.152344 241.546875 194.507812 239.003906 193.878906 235.21875 L 192.292969 225.613281 C 191.394531 220.1875 189.925781 219.125 187.6875 219.125 C 185.457031 219.125 183.984375 220.1875 183.085938 225.613281 L 181.496094 235.21875 C 180.871094 239.003906 178.222656 241.546875 174.914062 241.546875 L 133.949219 241.546875 C 129.921875 241.546875 126.71875 238.457031 125.785156 233.671875 L 118.523438 196.414062 C 118.328125 195.410156 118.980469 194.441406 119.976562 194.246094 C 120.976562 194.046875 121.945312 194.703125 122.136719 195.703125 L 129.398438 232.964844 C 129.859375 235.328125 131.296875 237.851562 133.949219 237.851562 L 174.914062 237.851562 C 176.699219 237.851562 177.617188 236.105469 177.863281 234.613281 L 179.453125 225.007812 C 179.929688 222.140625 181.035156 215.429688 187.6875 215.429688 C 194.339844 215.429688 195.449219 222.140625 195.925781 225.007812 L 197.515625 234.613281 C 197.761719 236.105469 198.683594 237.851562 200.46875 237.851562 L 241.425781 237.851562 C 244.082031 237.851562 245.515625 235.328125 245.976562 232.964844 L 253.242188 195.703125 C 253.4375 194.703125 254.398438 194.046875 255.398438 194.246094 C 256.398438 194.441406 257.050781 195.410156 256.851562 196.414062 L 249.589844 233.671875 C 248.664062 238.457031 245.457031 241.546875 241.425781 241.546875 Z M 241.425781 241.546875 " fill-opacity="1" fill-rule="evenodd"/></g><g clip-path="url(#f5f48b99b0)"><path fill="#000000" d="M 122.050781 174.429688 C 116.578125 174.429688 112.128906 178.894531 112.128906 184.382812 C 112.128906 189.871094 116.578125 194.335938 122.050781 194.335938 L 253.328125 194.335938 C 258.800781 194.335938 263.25 189.871094 263.25 184.382812 C 263.25 178.894531 258.796875 174.429688 253.328125 174.429688 Z M 253.328125 198.03125 L 122.050781 198.03125 C 114.550781 198.03125 108.445312 191.910156 108.445312 184.382812 C 108.445312 176.855469 114.546875 170.734375 122.050781 170.734375 L 253.328125 170.734375 C 260.828125 170.734375 266.933594 176.859375 266.933594 184.382812 C 266.933594 191.90625 260.828125 198.03125 253.328125 198.03125 Z M 253.328125 198.03125 " fill-opacity="1" fill-rule="evenodd"/></g><path fill="#000000" d="M 202.046875 187.476562 L 173.332031 187.476562 C 171.828125 187.476562 170.484375 186.6875 169.757812 185.363281 L 163.210938 173.472656 C 162.71875 172.582031 163.039062 171.457031 163.929688 170.964844 C 164.820312 170.472656 165.941406 170.796875 166.433594 171.6875 L 172.980469 183.574219 C 173.0625 183.726562 173.164062 183.78125 173.332031 183.78125 L 202.046875 183.78125 C 202.21875 183.78125 202.316406 183.726562 202.398438 183.574219 L 208.945312 171.6875 C 209.4375 170.796875 210.554688 170.46875 211.445312 170.964844 C 212.335938 171.457031 212.660156 172.582031 212.167969 173.472656 L 205.625 185.363281 C 204.890625 186.6875 203.554688 187.476562 202.046875 187.476562 Z M 202.046875 187.476562 " fill-opacity="1" fill-rule="evenodd"/><path fill="#000000" d="M 148.9375 160.335938 C 148.871094 160.335938 148.796875 160.332031 148.722656 160.324219 C 147.714844 160.207031 146.988281 159.285156 147.109375 158.273438 L 148.902344 142.945312 C 149.019531 141.929688 149.929688 141.207031 150.945312 141.324219 C 151.953125 141.445312 152.679688 142.359375 152.558594 143.375 L 150.769531 158.703125 C 150.65625 159.644531 149.863281 160.335938 148.9375 160.335938 Z M 148.9375 160.335938 " fill-opacity="1" fill-rule="evenodd"/><path fill="#000000" d="M 174.773438 160.335938 C 174.75 160.335938 174.726562 160.335938 174.699219 160.335938 C 173.6875 160.292969 172.890625 159.4375 172.933594 158.414062 L 173.527344 143.085938 C 173.570312 142.066406 174.417969 141.289062 175.441406 141.3125 C 176.457031 141.351562 177.25 142.210938 177.207031 143.230469 L 176.613281 158.5625 C 176.574219 159.554688 175.757812 160.335938 174.773438 160.335938 Z M 174.773438 160.335938 " fill-opacity="1" fill-rule="evenodd"/><path fill="#000000" d="M 200.605469 160.335938 C 199.625 160.335938 198.804688 159.554688 198.769531 158.5625 L 198.171875 143.230469 C 198.132812 142.210938 198.921875 141.351562 199.9375 141.3125 C 200.957031 141.285156 201.808594 142.066406 201.847656 143.089844 L 202.445312 158.414062 C 202.484375 159.4375 201.695312 160.292969 200.679688 160.335938 C 200.65625 160.335938 200.628906 160.335938 200.605469 160.335938 Z M 200.605469 160.335938 " fill-opacity="1" fill-rule="evenodd"/><path fill="#000000" d="M 226.4375 160.335938 C 225.519531 160.335938 224.722656 159.644531 224.613281 158.703125 L 222.824219 143.371094 C 222.703125 142.359375 223.421875 141.445312 224.4375 141.324219 C 225.445312 141.207031 226.359375 141.929688 226.476562 142.945312 L 228.269531 158.273438 C 228.386719 159.285156 227.667969 160.207031 226.65625 160.324219 C 226.585938 160.332031 226.511719 160.335938 226.4375 160.335938 Z M 226.4375 160.335938 " fill-opacity="1" fill-rule="evenodd"/><g clip-path="url(#408f0ac1f8)"><path fill="#000000" d="M 162.21875 117.796875 C 161.566406 117.796875 160.933594 117.449219 160.601562 116.835938 C 156.207031 108.765625 155.894531 101.136719 159.667969 94.164062 C 162.851562 88.277344 162.550781 82.019531 158.738281 75.023438 C 158.253906 74.132812 158.582031 73.007812 159.472656 72.519531 C 160.367188 72.03125 161.484375 72.355469 161.972656 73.253906 C 166.367188 81.320312 166.679688 88.953125 162.90625 95.925781 C 159.722656 101.8125 160.023438 108.070312 163.835938 115.066406 C 164.320312 115.957031 163.992188 117.082031 163.097656 117.570312 C 162.820312 117.726562 162.519531 117.796875 162.21875 117.796875 Z M 162.21875 117.796875 " fill-opacity="1" fill-rule="evenodd"/></g><g clip-path="url(#29b1407d38)"><path fill="#000000" d="M 188.621094 117.796875 C 187.96875 117.796875 187.339844 117.449219 187 116.835938 C 182.613281 108.765625 182.296875 101.140625 186.070312 94.164062 C 189.253906 88.277344 188.949219 82.019531 185.140625 75.023438 C 184.65625 74.132812 184.984375 73.007812 185.878906 72.519531 C 186.769531 72.03125 187.886719 72.355469 188.375 73.253906 C 192.769531 81.320312 193.082031 88.953125 189.308594 95.925781 C 186.125 101.8125 186.425781 108.070312 190.234375 115.0625 C 190.722656 115.957031 190.394531 117.082031 189.503906 117.570312 C 189.222656 117.726562 188.917969 117.796875 188.621094 117.796875 Z M 188.621094 117.796875 " fill-opacity="1" fill-rule="evenodd"/></g><g clip-path="url(#5a2db1a63b)"><path fill="#000000" d="M 215.023438 117.796875 C 214.371094 117.796875 213.742188 117.449219 213.40625 116.835938 C 209.015625 108.765625 208.699219 101.136719 212.472656 94.164062 C 215.65625 88.277344 215.351562 82.019531 211.546875 75.023438 C 211.058594 74.132812 211.386719 73.007812 212.277344 72.519531 C 213.171875 72.03125 214.289062 72.355469 214.777344 73.253906 C 219.167969 81.320312 219.484375 88.953125 215.707031 95.925781 C 212.53125 101.8125 212.832031 108.070312 216.636719 115.066406 C 217.125 115.957031 216.796875 117.082031 215.902344 117.570312 C 215.625 117.726562 215.320312 117.796875 215.023438 117.796875 Z M 215.023438 117.796875 " fill-opacity="1" fill-rule="evenodd"/></g><g clip-path="url(#f4d30d3b7f)"><path fill="#000000" d="M 285.746094 170.332031 C 293.929688 162.328125 293.9375 151.472656 293.933594 151.019531 L 293.933594 125.070312 L 293.695312 124.734375 C 293.515625 124.476562 292.832031 123.636719 291.597656 123.574219 C 290.472656 123.523438 289.617188 124.164062 289.214844 124.734375 L 289.015625 125.015625 L 286.75 148.855469 C 286.65625 149.050781 286.484375 149.296875 286.296875 149.359375 C 285.972656 149.464844 285.355469 149.246094 284.964844 148.589844 L 284.339844 125.960938 L 284.207031 125.699219 C 283.695312 124.695312 282.640625 124.101562 281.515625 124.183594 C 280.5 124.257812 279.609375 124.882812 279.1875 125.8125 L 279.085938 126.042969 L 278.265625 148.585938 C 277.886719 149.222656 277.265625 149.472656 276.9375 149.359375 C 276.742188 149.296875 276.570312 149.058594 276.476562 148.855469 L 274.199219 124.839844 L 273.800781 124.496094 C 273.597656 124.320312 272.867188 123.734375 272.0625 123.617188 C 271.257812 123.496094 270.464844 123.808594 269.695312 124.542969 L 269.292969 124.925781 L 269.292969 151.007812 C 269.289062 151.472656 269.304688 162.332031 277.488281 170.335938 L 277.566406 234.117188 C 277.457031 235.441406 277.925781 236.738281 278.859375 237.6875 C 279.679688 238.523438 280.757812 238.992188 281.847656 238.992188 C 281.925781 238.992188 282.003906 238.992188 282.078125 238.984375 C 283.15625 238.917969 284.203125 238.378906 284.953125 237.5 C 285.753906 236.566406 286.140625 235.332031 286.027344 234.105469 Z M 283.5 168.832031 L 283.085938 169.222656 L 283.371094 234.179688 L 283.378906 234.316406 C 283.460938 235.058594 283.128906 235.574219 282.925781 235.8125 C 282.644531 236.144531 282.265625 236.351562 281.914062 236.375 C 281.523438 236.40625 281.101562 236.207031 280.769531 235.867188 C 280.363281 235.453125 280.160156 234.882812 280.21875 234.300781 L 280.222656 234.238281 L 280.144531 169.214844 L 279.734375 168.828125 C 271.988281 161.59375 271.949219 151.128906 271.953125 151.015625 L 271.953125 129.238281 L 273.867188 149.457031 L 273.925781 149.609375 C 274.070312 150.011719 274.65625 151.363281 276.085938 151.839844 C 277.855469 152.433594 279.925781 151.382812 280.800781 149.453125 L 280.902344 149.222656 L 281.714844 126.929688 L 282.328125 149.21875 L 282.4375 149.457031 C 283.316406 151.382812 285.386719 152.429688 287.152344 151.839844 C 288.585938 151.363281 289.167969 150.011719 289.3125 149.605469 L 289.367188 149.453125 L 291.28125 129.28125 L 291.28125 151.03125 C 291.28125 151.132812 291.273438 161.570312 283.5 168.832031 Z M 283.5 168.832031 " fill-opacity="1" fill-rule="nonzero"/></g><g clip-path="url(#b81b12dd84)"><g clip-path="url(#13813f1fad)"><g clip-path="url(#8681a1c956)"><g clip-path="url(#8d533a8340)"><g clip-path="url(#aded0da078)"><path fill="#000000" d="M 106.035156 148.417969 C 106.371094 157.316406 102.398438 161.394531 96.824219 162.347656 L 100.640625 229.195312 C 100.785156 231.6875 100.132812 233.914062 99.078125 235.054688 C 96.765625 237.546875 93.976562 234.070312 93.894531 229.445312 L 92.6875 162.503906 C 87.132812 161.980469 82.789062 158.292969 82.453125 149.304688 C 82.171875 141.851562 84.722656 132.851562 88.703125 128.5625 C 96.910156 119.710938 105.570312 136.050781 106.035156 148.417969 Z M 87.527344 127.472656 C 83.351562 131.972656 80.546875 141.179688 80.855469 149.363281 C 81.253906 159.992188 86.929688 163.074219 91.109375 163.890625 L 92.292969 229.476562 C 92.34375 232.339844 93.269531 234.898438 94.769531 236.316406 C 95.601562 237.101562 96.570312 237.496094 97.574219 237.457031 C 100.984375 237.328125 102.453125 232.832031 102.242188 229.101562 L 98.5 163.617188 C 110.699219 160.3125 108.996094 143.171875 103.429688 132.617188 C 99.410156 125 93.097656 121.46875 87.527344 127.472656 " fill-opacity="1" fill-rule="nonzero"/></g></g></g></g></g><g clip-path="url(#aab76a5788)"><g clip-path="url(#99f5b5e748)"><g clip-path="url(#41c00c51b6)"><g clip-path="url(#a68091630c)"><path fill="#000000" d="M 86.152344 155.503906 C 87.808594 158.878906 90.972656 160.117188 94.648438 159.613281 C 93.03125 159.507812 91.417969 159.207031 90.074219 158.425781 C 86.066406 156.121094 85.929688 150.390625 86.222656 145.769531 C 86.570312 141.417969 87.894531 135.738281 90.105469 132.136719 C 90.933594 130.730469 91.917969 129.390625 93.5 129.007812 C 88.238281 128.894531 81.492188 146.195312 86.152344 155.503906 " fill-opacity="1" fill-rule="nonzero"/></g></g></g></g><g fill="#000000" fill-opacity="1"><g transform="translate(49.546306, 287.177427)"><g><path d="M 26.84375 -6.09375 L 26.84375 0 L 3.265625 0 L 3.265625 -36.640625 L 10.84375 -36.640625 L 10.84375 -6.09375 Z M 26.84375 -6.09375 "/></g></g></g><g fill="#000000" fill-opacity="1"><g transform="translate(81.719313, 287.177427)"><g><path d="M 19.328125 0 L 19.125 -2.796875 C 17.332031 -0.597656 14.847656 0.5 11.671875 0.5 C 8.867188 0.5 6.664062 -0.3125 5.0625 -1.9375 C 3.46875 -3.5625 2.660156 -6.085938 2.640625 -9.515625 L 2.640625 -27.21875 L 9.90625 -27.21875 L 9.90625 -9.5625 C 9.90625 -8.113281 10.25 -7.054688 10.9375 -6.390625 C 11.632812 -5.734375 12.578125 -5.40625 13.765625 -5.40625 C 16.242188 -5.40625 17.945312 -6.269531 18.875 -8 L 18.875 -27.21875 L 26.171875 -27.21875 L 26.171875 0 Z M 19.328125 0 "/></g></g></g><g fill="#000000" fill-opacity="1"><g transform="translate(114.848178, 287.177427)"><g><path d="M 14.546875 -21.84375 C 12.484375 -21.84375 10.945312 -20.96875 9.9375 -19.21875 L 9.9375 0 L 2.671875 0 L 2.671875 -27.21875 L 9.484375 -27.21875 L 9.734375 -24.109375 C 11.679688 -26.523438 14.289062 -27.734375 17.5625 -27.734375 C 20.28125 -27.734375 22.390625 -26.925781 23.890625 -25.3125 C 25.390625 -23.695312 26.148438 -21.082031 26.171875 -17.46875 L 26.171875 0 L 18.875 0 L 18.875 -17.359375 C 18.875 -19.035156 18.519531 -20.203125 17.8125 -20.859375 C 17.101562 -21.515625 16.015625 -21.84375 14.546875 -21.84375 Z M 14.546875 -21.84375 "/></g></g></g><g fill="#000000" fill-opacity="1"><g transform="translate(147.977047, 287.177427)"><g><path d="M 14.109375 -5.359375 C 15.453125 -5.359375 16.546875 -5.726562 17.390625 -6.46875 C 18.242188 -7.207031 18.675781 -8.1875 18.6875 -9.40625 L 25.546875 -9.40625 C 25.523438 -7.507812 25.007812 -5.8125 24 -4.3125 C 23 -2.8125 21.640625 -1.632812 19.921875 -0.78125 C 18.210938 0.0703125 16.316406 0.5 14.234375 0.5 C 11.523438 0.5 9.222656 -0.0976562 7.328125 -1.296875 C 5.441406 -2.492188 4.023438 -4.128906 3.078125 -6.203125 C 2.128906 -8.273438 1.65625 -10.628906 1.65625 -13.265625 L 1.65625 -13.96875 C 1.65625 -16.582031 2.125 -18.925781 3.0625 -21 C 4.007812 -23.082031 5.425781 -24.722656 7.3125 -25.921875 C 9.195312 -27.128906 11.5 -27.734375 14.21875 -27.734375 C 16.425781 -27.734375 18.378906 -27.300781 20.078125 -26.4375 C 21.785156 -25.570312 23.117188 -24.332031 24.078125 -22.71875 C 25.035156 -21.113281 25.523438 -19.234375 25.546875 -17.078125 L 18.6875 -17.078125 C 18.675781 -17.972656 18.488281 -18.785156 18.125 -19.515625 C 17.769531 -20.242188 17.25 -20.816406 16.5625 -21.234375 C 15.875 -21.648438 15.050781 -21.859375 14.09375 -21.859375 C 12.726562 -21.859375 11.671875 -21.507812 10.921875 -20.8125 C 10.179688 -20.125 9.664062 -19.15625 9.375 -17.90625 C 9.09375 -16.664062 8.953125 -15.117188 8.953125 -13.265625 C 8.953125 -10.816406 9.316406 -8.882812 10.046875 -7.46875 C 10.773438 -6.0625 12.128906 -5.359375 14.109375 -5.359375 Z M 14.109375 -5.359375 "/></g></g></g><g fill="#000000" fill-opacity="1"><g transform="translate(179.143885, 287.177427)"><g><path d="M 14.515625 -21.84375 C 12.398438 -21.84375 10.863281 -21.03125 9.90625 -19.40625 L 9.90625 0 L 2.640625 0 L 2.640625 -38.65625 L 9.90625 -38.65625 L 9.90625 -24.28125 C 11.800781 -26.582031 14.226562 -27.734375 17.1875 -27.734375 C 20 -27.734375 22.191406 -26.898438 23.765625 -25.234375 C 25.347656 -23.578125 26.148438 -20.925781 26.171875 -17.28125 L 26.171875 0 L 18.875 0 L 18.875 -17.203125 C 18.875 -18.898438 18.507812 -20.097656 17.78125 -20.796875 C 17.0625 -21.492188 15.972656 -21.84375 14.515625 -21.84375 Z M 14.515625 -21.84375 "/></g></g></g><g fill="#000000" fill-opacity="1"><g transform="translate(212.272743, 287.177427)"><g/></g></g><g fill="#000000" fill-opacity="1"><g transform="translate(229.378432, 287.177427)"><g><path d="M 30.5 -10.796875 C 30.5 -7.285156 29.378906 -4.613281 27.140625 -2.78125 C 24.910156 -0.957031 21.703125 -0.03125 17.515625 0 L 3.265625 0 L 3.265625 -36.640625 L 16.125 -36.640625 C 20.46875 -36.640625 23.8125 -35.804688 26.15625 -34.140625 C 28.507812 -32.484375 29.6875 -29.976562 29.6875 -26.625 C 29.6875 -24.875 29.25 -23.316406 28.375 -21.953125 C 27.507812 -20.585938 26.203125 -19.5625 24.453125 -18.875 C 26.484375 -18.363281 28 -17.363281 29 -15.875 C 30 -14.394531 30.5 -12.703125 30.5 -10.796875 Z M 10.84375 -30.515625 L 10.84375 -21.3125 L 16.125 -21.3125 C 20.113281 -21.3125 22.109375 -22.820312 22.109375 -25.84375 C 22.109375 -28.894531 20.195312 -30.453125 16.375 -30.515625 Z M 22.953125 -10.875 C 22.953125 -14.15625 21.289062 -15.859375 17.96875 -15.984375 L 10.84375 -15.984375 L 10.84375 -6.09375 L 17.28125 -6.09375 C 19.144531 -6.09375 20.554688 -6.523438 21.515625 -7.390625 C 22.472656 -8.265625 22.953125 -9.425781 22.953125 -10.875 Z M 22.953125 -10.875 "/></g></g></g><g fill="#000000" fill-opacity="1"><g transform="translate(266.531948, 287.177427)"><g><path d="M 1.65625 -13.859375 C 1.65625 -16.523438 2.164062 -18.90625 3.1875 -21 C 4.21875 -23.101562 5.703125 -24.75 7.640625 -25.9375 C 9.578125 -27.132812 11.878906 -27.734375 14.546875 -27.734375 C 17.222656 -27.734375 19.535156 -27.132812 21.484375 -25.9375 C 23.429688 -24.75 24.910156 -23.101562 25.921875 -21 C 26.941406 -18.90625 27.453125 -16.523438 27.453125 -13.859375 L 27.453125 -13.328125 C 27.453125 -10.660156 26.941406 -8.28125 25.921875 -6.1875 C 24.910156 -4.101562 23.441406 -2.46875 21.515625 -1.28125 C 19.585938 -0.09375 17.28125 0.5 14.59375 0.5 C 11.945312 0.5 9.65625 -0.078125 7.71875 -1.234375 C 5.78125 -2.390625 4.296875 -3.988281 3.265625 -6.03125 C 2.242188 -8.082031 1.707031 -10.410156 1.65625 -13.015625 Z M 8.953125 -13.328125 C 8.953125 -10.929688 9.40625 -9.003906 10.3125 -7.546875 C 11.21875 -6.085938 12.644531 -5.359375 14.59375 -5.359375 C 18.320312 -5.359375 20.1875 -8.191406 20.1875 -13.859375 C 20.1875 -16.222656 19.734375 -18.144531 18.828125 -19.625 C 17.921875 -21.113281 16.492188 -21.859375 14.546875 -21.859375 C 10.816406 -21.859375 8.953125 -19.015625 8.953125 -13.328125 Z M 8.953125 -13.328125 "/></g></g></g><g fill="#000000" fill-opacity="1"><g transform="translate(299.937502, 287.177427)"><g><path d="M 8.703125 -27.21875 L 13.15625 -19.125 L 17.734375 -27.21875 L 25.515625 -27.21875 L 17.765625 -13.921875 L 25.84375 0 L 18.0625 0 L 13.1875 -8.578125 L 8.375 0 L 0.546875 0 L 8.625 -13.921875 L 0.875 -27.21875 Z M 8.703125 -27.21875 "/></g></g></g></svg>