<svg xmlns="http://www.w3.org/2000/svg" xmlns:xlink="http://www.w3.org/1999/xlink" width="500" zoomAndPan="magnify" viewBox="0 0 375 374.999991" height="500" preserveAspectRatio="xMidYMid meet" version="1.0"><defs><linearGradient x1="0" gradientTransform="matrix(0.75, 0, 0, 0.75, 0.0000045, 0)" y1="0" x2="499.999979" gradientUnits="userSpaceOnUse" y2="499.999979" id="e3d07d75a4"><stop stop-opacity="1" stop-color="rgb(54.899597%, 32.199097%, 100%)" offset="0"/><stop stop-opacity="1" stop-color="rgb(54.684448%, 32.365417%, 99.760437%)" offset="0.00390625"/><stop stop-opacity="1" stop-color="rgb(54.470825%, 32.533264%, 99.520874%)" offset="0.0078125"/><stop stop-opacity="1" stop-color="rgb(54.255676%, 32.699585%, 99.281311%)" offset="0.0117187"/><stop stop-opacity="1" stop-color="rgb(54.042053%, 32.865906%, 99.043274%)" offset="0.015625"/><stop stop-opacity="1" stop-color="rgb(53.826904%, 33.032227%, 98.803711%)" offset="0.0195312"/><stop stop-opacity="1" stop-color="rgb(53.613281%, 33.200073%, 98.564148%)" offset="0.0234375"/><stop stop-opacity="1" stop-color="rgb(53.398132%, 33.366394%, 98.324585%)" offset="0.0273438"/><stop stop-opacity="1" stop-color="rgb(53.182983%, 33.534241%, 98.086548%)" offset="0.03125"/><stop stop-opacity="1" stop-color="rgb(52.967834%, 33.700562%, 97.846985%)" offset="0.0351562"/><stop stop-opacity="1" stop-color="rgb(52.754211%, 33.866882%, 97.608948%)" offset="0.0390625"/><stop stop-opacity="1" stop-color="rgb(52.539062%, 34.033203%, 97.369385%)" offset="0.0429687"/><stop stop-opacity="1" stop-color="rgb(52.325439%, 34.20105%, 97.129822%)" offset="0.046875"/><stop stop-opacity="1" stop-color="rgb(52.110291%, 34.367371%, 96.890259%)" offset="0.0507812"/><stop stop-opacity="1" stop-color="rgb(51.896667%, 34.533691%, 96.652222%)" offset="0.0546875"/><stop stop-opacity="1" stop-color="rgb(51.681519%, 34.700012%, 96.412659%)" offset="0.0585938"/><stop stop-opacity="1" stop-color="rgb(51.467896%, 34.867859%, 96.174622%)" offset="0.0625"/><stop stop-opacity="1" stop-color="rgb(51.252747%, 35.03418%, 95.935059%)" offset="0.0664062"/><stop stop-opacity="1" stop-color="rgb(51.039124%, 35.202026%, 95.695496%)" offset="0.0703125"/><stop stop-opacity="1" stop-color="rgb(50.823975%, 35.368347%, 95.455933%)" offset="0.0742187"/><stop stop-opacity="1" stop-color="rgb(50.610352%, 35.534668%, 95.217896%)" offset="0.078125"/><stop stop-opacity="1" stop-color="rgb(50.395203%, 35.700989%, 94.978333%)" offset="0.0820312"/><stop stop-opacity="1" stop-color="rgb(50.18158%, 35.868835%, 94.740295%)" offset="0.0859375"/><stop stop-opacity="1" stop-color="rgb(49.966431%, 36.035156%, 94.500732%)" offset="0.0898437"/><stop stop-opacity="1" stop-color="rgb(49.752808%, 36.203003%, 94.261169%)" offset="0.09375"/><stop stop-opacity="1" stop-color="rgb(49.537659%, 36.369324%, 94.021606%)" offset="0.0976562"/><stop stop-opacity="1" stop-color="rgb(49.324036%, 36.535645%, 93.783569%)" offset="0.101562"/><stop stop-opacity="1" stop-color="rgb(49.108887%, 36.701965%, 93.544006%)" offset="0.105469"/><stop stop-opacity="1" stop-color="rgb(48.895264%, 36.869812%, 93.305969%)" offset="0.109375"/><stop stop-opacity="1" stop-color="rgb(48.680115%, 37.036133%, 93.066406%)" offset="0.113281"/><stop stop-opacity="1" stop-color="rgb(48.464966%, 37.202454%, 92.826843%)" offset="0.117188"/><stop stop-opacity="1" stop-color="rgb(48.249817%, 37.368774%, 92.58728%)" offset="0.121094"/><stop stop-opacity="1" stop-color="rgb(48.036194%, 37.536621%, 92.349243%)" offset="0.125"/><stop stop-opacity="1" stop-color="rgb(47.821045%, 37.702942%, 92.10968%)" offset="0.128906"/><stop stop-opacity="1" stop-color="rgb(47.607422%, 37.870789%, 91.871643%)" offset="0.132812"/><stop stop-opacity="1" stop-color="rgb(47.392273%, 38.037109%, 91.63208%)" offset="0.136719"/><stop stop-opacity="1" stop-color="rgb(47.17865%, 38.20343%, 91.392517%)" offset="0.140625"/><stop stop-opacity="1" stop-color="rgb(46.963501%, 38.369751%, 91.152954%)" offset="0.144531"/><stop stop-opacity="1" stop-color="rgb(46.749878%, 38.537598%, 90.914917%)" offset="0.148437"/><stop stop-opacity="1" stop-color="rgb(46.534729%, 38.703918%, 90.675354%)" offset="0.152344"/><stop stop-opacity="1" stop-color="rgb(46.321106%, 38.871765%, 90.437317%)" offset="0.15625"/><stop stop-opacity="1" stop-color="rgb(46.105957%, 39.038086%, 90.197754%)" offset="0.160156"/><stop stop-opacity="1" stop-color="rgb(45.892334%, 39.204407%, 89.958191%)" offset="0.164062"/><stop stop-opacity="1" stop-color="rgb(45.677185%, 39.370728%, 89.718628%)" offset="0.167969"/><stop stop-opacity="1" stop-color="rgb(45.463562%, 39.538574%, 89.480591%)" offset="0.171875"/><stop stop-opacity="1" stop-color="rgb(45.248413%, 39.704895%, 89.241028%)" offset="0.175781"/><stop stop-opacity="1" stop-color="rgb(45.03479%, 39.871216%, 89.002991%)" offset="0.179687"/><stop stop-opacity="1" stop-color="rgb(44.819641%, 40.037537%, 88.763428%)" offset="0.183594"/><stop stop-opacity="1" stop-color="rgb(44.606018%, 40.205383%, 88.523865%)" offset="0.1875"/><stop stop-opacity="1" stop-color="rgb(44.390869%, 40.371704%, 88.284302%)" offset="0.191406"/><stop stop-opacity="1" stop-color="rgb(44.177246%, 40.539551%, 88.046265%)" offset="0.195312"/><stop stop-opacity="1" stop-color="rgb(43.962097%, 40.705872%, 87.806702%)" offset="0.199219"/><stop stop-opacity="1" stop-color="rgb(43.746948%, 40.872192%, 87.568665%)" offset="0.203125"/><stop stop-opacity="1" stop-color="rgb(43.531799%, 41.038513%, 87.329102%)" offset="0.207031"/><stop stop-opacity="1" stop-color="rgb(43.318176%, 41.20636%, 87.089539%)" offset="0.210938"/><stop stop-opacity="1" stop-color="rgb(43.103027%, 41.372681%, 86.849976%)" offset="0.214844"/><stop stop-opacity="1" stop-color="rgb(42.889404%, 41.540527%, 86.611938%)" offset="0.21875"/><stop stop-opacity="1" stop-color="rgb(42.674255%, 41.706848%, 86.372375%)" offset="0.222656"/><stop stop-opacity="1" stop-color="rgb(42.460632%, 41.873169%, 86.134338%)" offset="0.226562"/><stop stop-opacity="1" stop-color="rgb(42.245483%, 42.03949%, 85.894775%)" offset="0.230469"/><stop stop-opacity="1" stop-color="rgb(42.03186%, 42.207336%, 85.655212%)" offset="0.234375"/><stop stop-opacity="1" stop-color="rgb(41.816711%, 42.373657%, 85.415649%)" offset="0.238281"/><stop stop-opacity="1" stop-color="rgb(41.603088%, 42.539978%, 85.177612%)" offset="0.242188"/><stop stop-opacity="1" stop-color="rgb(41.387939%, 42.706299%, 84.938049%)" offset="0.246094"/><stop stop-opacity="1" stop-color="rgb(41.174316%, 42.874146%, 84.698486%)" offset="0.25"/><stop stop-opacity="1" stop-color="rgb(40.959167%, 43.040466%, 84.458923%)" offset="0.253906"/><stop stop-opacity="1" stop-color="rgb(40.745544%, 43.208313%, 84.220886%)" offset="0.257812"/><stop stop-opacity="1" stop-color="rgb(40.530396%, 43.374634%, 83.981323%)" offset="0.261719"/><stop stop-opacity="1" stop-color="rgb(40.316772%, 43.540955%, 83.743286%)" offset="0.265625"/><stop stop-opacity="1" stop-color="rgb(40.101624%, 43.707275%, 83.503723%)" offset="0.269531"/><stop stop-opacity="1" stop-color="rgb(39.888%, 43.875122%, 83.26416%)" offset="0.273437"/><stop stop-opacity="1" stop-color="rgb(39.672852%, 44.041443%, 83.024597%)" offset="0.277344"/><stop stop-opacity="1" stop-color="rgb(39.459229%, 44.20929%, 82.78656%)" offset="0.28125"/><stop stop-opacity="1" stop-color="rgb(39.24408%, 44.37561%, 82.546997%)" offset="0.285156"/><stop stop-opacity="1" stop-color="rgb(39.030457%, 44.541931%, 82.30896%)" offset="0.289062"/><stop stop-opacity="1" stop-color="rgb(38.815308%, 44.708252%, 82.069397%)" offset="0.292969"/><stop stop-opacity="1" stop-color="rgb(38.600159%, 44.876099%, 81.829834%)" offset="0.296875"/><stop stop-opacity="1" stop-color="rgb(38.38501%, 45.042419%, 81.590271%)" offset="0.300781"/><stop stop-opacity="1" stop-color="rgb(38.171387%, 45.20874%, 81.352234%)" offset="0.304687"/><stop stop-opacity="1" stop-color="rgb(37.956238%, 45.375061%, 81.112671%)" offset="0.308594"/><stop stop-opacity="1" stop-color="rgb(37.742615%, 45.542908%, 80.874634%)" offset="0.3125"/><stop stop-opacity="1" stop-color="rgb(37.527466%, 45.709229%, 80.635071%)" offset="0.316406"/><stop stop-opacity="1" stop-color="rgb(37.313843%, 45.877075%, 80.395508%)" offset="0.320312"/><stop stop-opacity="1" stop-color="rgb(37.098694%, 46.043396%, 80.155945%)" offset="0.324219"/><stop stop-opacity="1" stop-color="rgb(36.885071%, 46.209717%, 79.917908%)" offset="0.328125"/><stop stop-opacity="1" stop-color="rgb(36.669922%, 46.376038%, 79.678345%)" offset="0.332031"/><stop stop-opacity="1" stop-color="rgb(36.456299%, 46.543884%, 79.440308%)" offset="0.335937"/><stop stop-opacity="1" stop-color="rgb(36.24115%, 46.710205%, 79.200745%)" offset="0.339844"/><stop stop-opacity="1" stop-color="rgb(36.027527%, 46.878052%, 78.961182%)" offset="0.34375"/><stop stop-opacity="1" stop-color="rgb(35.812378%, 47.044373%, 78.721619%)" offset="0.347656"/><stop stop-opacity="1" stop-color="rgb(35.598755%, 47.210693%, 78.483582%)" offset="0.351562"/><stop stop-opacity="1" stop-color="rgb(35.383606%, 47.377014%, 78.244019%)" offset="0.355469"/><stop stop-opacity="1" stop-color="rgb(35.169983%, 47.544861%, 78.005981%)" offset="0.359375"/><stop stop-opacity="1" stop-color="rgb(34.954834%, 47.711182%, 77.766418%)" offset="0.363281"/><stop stop-opacity="1" stop-color="rgb(34.741211%, 47.877502%, 77.526855%)" offset="0.367187"/><stop stop-opacity="1" stop-color="rgb(34.526062%, 48.043823%, 77.287292%)" offset="0.371094"/><stop stop-opacity="1" stop-color="rgb(34.312439%, 48.21167%, 77.049255%)" offset="0.375"/><stop stop-opacity="1" stop-color="rgb(34.09729%, 48.377991%, 76.809692%)" offset="0.378906"/><stop stop-opacity="1" stop-color="rgb(33.882141%, 48.545837%, 76.571655%)" offset="0.382812"/><stop stop-opacity="1" stop-color="rgb(33.666992%, 48.712158%, 76.332092%)" offset="0.386719"/><stop stop-opacity="1" stop-color="rgb(33.453369%, 48.878479%, 76.092529%)" offset="0.390625"/><stop stop-opacity="1" stop-color="rgb(33.23822%, 49.0448%, 75.852966%)" offset="0.394531"/><stop stop-opacity="1" stop-color="rgb(33.024597%, 49.212646%, 75.614929%)" offset="0.398438"/><stop stop-opacity="1" stop-color="rgb(32.809448%, 49.378967%, 75.375366%)" offset="0.402344"/><stop stop-opacity="1" stop-color="rgb(32.595825%, 49.546814%, 75.137329%)" offset="0.40625"/><stop stop-opacity="1" stop-color="rgb(32.380676%, 49.713135%, 74.897766%)" offset="0.410156"/><stop stop-opacity="1" stop-color="rgb(32.167053%, 49.879456%, 74.658203%)" offset="0.414062"/><stop stop-opacity="1" stop-color="rgb(31.951904%, 50.045776%, 74.41864%)" offset="0.417969"/><stop stop-opacity="1" stop-color="rgb(31.738281%, 50.213623%, 74.180603%)" offset="0.421875"/><stop stop-opacity="1" stop-color="rgb(31.523132%, 50.379944%, 73.94104%)" offset="0.425781"/><stop stop-opacity="1" stop-color="rgb(31.309509%, 50.546265%, 73.703003%)" offset="0.429688"/><stop stop-opacity="1" stop-color="rgb(31.09436%, 50.712585%, 73.46344%)" offset="0.433594"/><stop stop-opacity="1" stop-color="rgb(30.880737%, 50.880432%, 73.223877%)" offset="0.4375"/><stop stop-opacity="1" stop-color="rgb(30.665588%, 51.046753%, 72.984314%)" offset="0.441406"/><stop stop-opacity="1" stop-color="rgb(30.451965%, 51.2146%, 72.746277%)" offset="0.445312"/><stop stop-opacity="1" stop-color="rgb(30.236816%, 51.38092%, 72.506714%)" offset="0.449219"/><stop stop-opacity="1" stop-color="rgb(30.023193%, 51.547241%, 72.268677%)" offset="0.453125"/><stop stop-opacity="1" stop-color="rgb(29.808044%, 51.713562%, 72.029114%)" offset="0.457031"/><stop stop-opacity="1" stop-color="rgb(29.594421%, 51.881409%, 71.789551%)" offset="0.460938"/><stop stop-opacity="1" stop-color="rgb(29.379272%, 52.047729%, 71.549988%)" offset="0.464844"/><stop stop-opacity="1" stop-color="rgb(29.164124%, 52.215576%, 71.311951%)" offset="0.46875"/><stop stop-opacity="1" stop-color="rgb(28.948975%, 52.381897%, 71.072388%)" offset="0.472656"/><stop stop-opacity="1" stop-color="rgb(28.735352%, 52.548218%, 70.834351%)" offset="0.476562"/><stop stop-opacity="1" stop-color="rgb(28.520203%, 52.714539%, 70.594788%)" offset="0.480469"/><stop stop-opacity="1" stop-color="rgb(28.30658%, 52.882385%, 70.355225%)" offset="0.484375"/><stop stop-opacity="1" stop-color="rgb(28.091431%, 53.048706%, 70.115662%)" offset="0.488281"/><stop stop-opacity="1" stop-color="rgb(27.877808%, 53.215027%, 69.877625%)" offset="0.492188"/><stop stop-opacity="1" stop-color="rgb(27.662659%, 53.381348%, 69.638062%)" offset="0.496094"/><stop stop-opacity="1" stop-color="rgb(27.449036%, 53.549194%, 69.398499%)" offset="0.5"/><stop stop-opacity="1" stop-color="rgb(27.233887%, 53.715515%, 69.158936%)" offset="0.503906"/><stop stop-opacity="1" stop-color="rgb(27.020264%, 53.883362%, 68.920898%)" offset="0.507812"/><stop stop-opacity="1" stop-color="rgb(26.805115%, 54.049683%, 68.681335%)" offset="0.511719"/><stop stop-opacity="1" stop-color="rgb(26.591492%, 54.216003%, 68.443298%)" offset="0.515625"/><stop stop-opacity="1" stop-color="rgb(26.376343%, 54.382324%, 68.203735%)" offset="0.519531"/><stop stop-opacity="1" stop-color="rgb(26.16272%, 54.550171%, 67.964172%)" offset="0.523437"/><stop stop-opacity="1" stop-color="rgb(25.947571%, 54.716492%, 67.724609%)" offset="0.527344"/><stop stop-opacity="1" stop-color="rgb(25.733948%, 54.884338%, 67.486572%)" offset="0.53125"/><stop stop-opacity="1" stop-color="rgb(25.518799%, 55.050659%, 67.247009%)" offset="0.535156"/><stop stop-opacity="1" stop-color="rgb(25.305176%, 55.21698%, 67.008972%)" offset="0.539062"/><stop stop-opacity="1" stop-color="rgb(25.090027%, 55.383301%, 66.769409%)" offset="0.542969"/><stop stop-opacity="1" stop-color="rgb(24.876404%, 55.551147%, 66.529846%)" offset="0.546875"/><stop stop-opacity="1" stop-color="rgb(24.661255%, 55.717468%, 66.290283%)" offset="0.550781"/><stop stop-opacity="1" stop-color="rgb(24.447632%, 55.883789%, 66.052246%)" offset="0.554687"/><stop stop-opacity="1" stop-color="rgb(24.232483%, 56.05011%, 65.812683%)" offset="0.558594"/><stop stop-opacity="1" stop-color="rgb(24.017334%, 56.217957%, 65.574646%)" offset="0.5625"/><stop stop-opacity="1" stop-color="rgb(23.802185%, 56.384277%, 65.335083%)" offset="0.566406"/><stop stop-opacity="1" stop-color="rgb(23.588562%, 56.552124%, 65.09552%)" offset="0.570312"/><stop stop-opacity="1" stop-color="rgb(23.373413%, 56.718445%, 64.855957%)" offset="0.574219"/><stop stop-opacity="1" stop-color="rgb(23.15979%, 56.884766%, 64.61792%)" offset="0.578125"/><stop stop-opacity="1" stop-color="rgb(22.944641%, 57.051086%, 64.378357%)" offset="0.582031"/><stop stop-opacity="1" stop-color="rgb(22.731018%, 57.218933%, 64.14032%)" offset="0.585937"/><stop stop-opacity="1" stop-color="rgb(22.515869%, 57.385254%, 63.900757%)" offset="0.589844"/><stop stop-opacity="1" stop-color="rgb(22.302246%, 57.553101%, 63.661194%)" offset="0.59375"/><stop stop-opacity="1" stop-color="rgb(22.087097%, 57.719421%, 63.421631%)" offset="0.597656"/><stop stop-opacity="1" stop-color="rgb(21.873474%, 57.885742%, 63.183594%)" offset="0.601562"/><stop stop-opacity="1" stop-color="rgb(21.658325%, 58.052063%, 62.944031%)" offset="0.605469"/><stop stop-opacity="1" stop-color="rgb(21.444702%, 58.21991%, 62.705994%)" offset="0.609375"/><stop stop-opacity="1" stop-color="rgb(21.229553%, 58.38623%, 62.466431%)" offset="0.613281"/><stop stop-opacity="1" stop-color="rgb(21.01593%, 58.552551%, 62.226868%)" offset="0.617187"/><stop stop-opacity="1" stop-color="rgb(20.800781%, 58.718872%, 61.987305%)" offset="0.621094"/><stop stop-opacity="1" stop-color="rgb(20.587158%, 58.886719%, 61.749268%)" offset="0.625"/><stop stop-opacity="1" stop-color="rgb(20.372009%, 59.05304%, 61.509705%)" offset="0.628906"/><stop stop-opacity="1" stop-color="rgb(20.158386%, 59.220886%, 61.271667%)" offset="0.632812"/><stop stop-opacity="1" stop-color="rgb(19.943237%, 59.387207%, 61.032104%)" offset="0.636719"/><stop stop-opacity="1" stop-color="rgb(19.729614%, 59.553528%, 60.792542%)" offset="0.640625"/><stop stop-opacity="1" stop-color="rgb(19.514465%, 59.719849%, 60.552979%)" offset="0.644531"/><stop stop-opacity="1" stop-color="rgb(19.299316%, 59.887695%, 60.314941%)" offset="0.648437"/><stop stop-opacity="1" stop-color="rgb(19.084167%, 60.054016%, 60.075378%)" offset="0.652344"/><stop stop-opacity="1" stop-color="rgb(18.870544%, 60.221863%, 59.837341%)" offset="0.65625"/><stop stop-opacity="1" stop-color="rgb(18.655396%, 60.388184%, 59.597778%)" offset="0.660156"/><stop stop-opacity="1" stop-color="rgb(18.441772%, 60.554504%, 59.358215%)" offset="0.664062"/><stop stop-opacity="1" stop-color="rgb(18.226624%, 60.720825%, 59.118652%)" offset="0.667969"/><stop stop-opacity="1" stop-color="rgb(18.013%, 60.888672%, 58.880615%)" offset="0.671875"/><stop stop-opacity="1" stop-color="rgb(17.797852%, 61.054993%, 58.641052%)" offset="0.675781"/><stop stop-opacity="1" stop-color="rgb(17.584229%, 61.221313%, 58.403015%)" offset="0.679687"/><stop stop-opacity="1" stop-color="rgb(17.36908%, 61.387634%, 58.163452%)" offset="0.683594"/><stop stop-opacity="1" stop-color="rgb(17.155457%, 61.555481%, 57.923889%)" offset="0.6875"/><stop stop-opacity="1" stop-color="rgb(16.940308%, 61.721802%, 57.684326%)" offset="0.691406"/><stop stop-opacity="1" stop-color="rgb(16.726685%, 61.889648%, 57.446289%)" offset="0.695312"/><stop stop-opacity="1" stop-color="rgb(16.511536%, 62.055969%, 57.206726%)" offset="0.699219"/><stop stop-opacity="1" stop-color="rgb(16.297913%, 62.22229%, 56.968689%)" offset="0.703125"/><stop stop-opacity="1" stop-color="rgb(16.082764%, 62.388611%, 56.729126%)" offset="0.707031"/><stop stop-opacity="1" stop-color="rgb(15.869141%, 62.556458%, 56.489563%)" offset="0.710937"/><stop stop-opacity="1" stop-color="rgb(15.653992%, 62.722778%, 56.25%)" offset="0.714844"/><stop stop-opacity="1" stop-color="rgb(15.440369%, 62.889099%, 56.011963%)" offset="0.71875"/><stop stop-opacity="1" stop-color="rgb(15.22522%, 63.05542%, 55.7724%)" offset="0.722656"/><stop stop-opacity="1" stop-color="rgb(15.011597%, 63.223267%, 55.534363%)" offset="0.726562"/><stop stop-opacity="1" stop-color="rgb(14.796448%, 63.389587%, 55.2948%)" offset="0.730469"/><stop stop-opacity="1" stop-color="rgb(14.581299%, 63.557434%, 55.055237%)" offset="0.734375"/><stop stop-opacity="1" stop-color="rgb(14.36615%, 63.723755%, 54.815674%)" offset="0.738281"/><stop stop-opacity="1" stop-color="rgb(14.152527%, 63.890076%, 54.577637%)" offset="0.742187"/><stop stop-opacity="1" stop-color="rgb(13.937378%, 64.056396%, 54.338074%)" offset="0.746094"/><stop stop-opacity="1" stop-color="rgb(13.723755%, 64.224243%, 54.098511%)" offset="0.75"/><stop stop-opacity="1" stop-color="rgb(13.508606%, 64.390564%, 53.858948%)" offset="0.753906"/><stop stop-opacity="1" stop-color="rgb(13.294983%, 64.558411%, 53.620911%)" offset="0.757812"/><stop stop-opacity="1" stop-color="rgb(13.079834%, 64.724731%, 53.381348%)" offset="0.761719"/><stop stop-opacity="1" stop-color="rgb(12.866211%, 64.891052%, 53.143311%)" offset="0.765625"/><stop stop-opacity="1" stop-color="rgb(12.651062%, 65.057373%, 52.903748%)" offset="0.769531"/><stop stop-opacity="1" stop-color="rgb(12.437439%, 65.22522%, 52.664185%)" offset="0.773438"/><stop stop-opacity="1" stop-color="rgb(12.22229%, 65.391541%, 52.424622%)" offset="0.777344"/><stop stop-opacity="1" stop-color="rgb(12.008667%, 65.557861%, 52.186584%)" offset="0.78125"/><stop stop-opacity="1" stop-color="rgb(11.793518%, 65.724182%, 51.947021%)" offset="0.785156"/><stop stop-opacity="1" stop-color="rgb(11.579895%, 65.892029%, 51.708984%)" offset="0.789062"/><stop stop-opacity="1" stop-color="rgb(11.364746%, 66.05835%, 51.469421%)" offset="0.792969"/><stop stop-opacity="1" stop-color="rgb(11.151123%, 66.226196%, 51.229858%)" offset="0.796875"/><stop stop-opacity="1" stop-color="rgb(10.935974%, 66.392517%, 50.990295%)" offset="0.800781"/><stop stop-opacity="1" stop-color="rgb(10.722351%, 66.558838%, 50.752258%)" offset="0.804688"/><stop stop-opacity="1" stop-color="rgb(10.507202%, 66.725159%, 50.512695%)" offset="0.808594"/><stop stop-opacity="1" stop-color="rgb(10.293579%, 66.893005%, 50.274658%)" offset="0.8125"/><stop stop-opacity="1" stop-color="rgb(10.07843%, 67.059326%, 50.035095%)" offset="0.816406"/><stop stop-opacity="1" stop-color="rgb(9.864807%, 67.227173%, 49.795532%)" offset="0.820312"/><stop stop-opacity="1" stop-color="rgb(9.649658%, 67.393494%, 49.555969%)" offset="0.824219"/><stop stop-opacity="1" stop-color="rgb(9.434509%, 67.559814%, 49.317932%)" offset="0.828125"/><stop stop-opacity="1" stop-color="rgb(9.21936%, 67.726135%, 49.078369%)" offset="0.832031"/><stop stop-opacity="1" stop-color="rgb(9.005737%, 67.893982%, 48.840332%)" offset="0.835938"/><stop stop-opacity="1" stop-color="rgb(8.790588%, 68.060303%, 48.600769%)" offset="0.839844"/><stop stop-opacity="1" stop-color="rgb(8.576965%, 68.226624%, 48.361206%)" offset="0.84375"/><stop stop-opacity="1" stop-color="rgb(8.361816%, 68.392944%, 48.121643%)" offset="0.847656"/><stop stop-opacity="1" stop-color="rgb(8.148193%, 68.560791%, 47.883606%)" offset="0.851562"/><stop stop-opacity="1" stop-color="rgb(7.933044%, 68.727112%, 47.644043%)" offset="0.855469"/><stop stop-opacity="1" stop-color="rgb(7.719421%, 68.894958%, 47.406006%)" offset="0.859375"/><stop stop-opacity="1" stop-color="rgb(7.504272%, 69.061279%, 47.166443%)" offset="0.863281"/><stop stop-opacity="1" stop-color="rgb(7.290649%, 69.2276%, 46.92688%)" offset="0.867188"/><stop stop-opacity="1" stop-color="rgb(7.0755%, 69.393921%, 46.687317%)" offset="0.871094"/><stop stop-opacity="1" stop-color="rgb(6.861877%, 69.561768%, 46.44928%)" offset="0.875"/><stop stop-opacity="1" stop-color="rgb(6.646729%, 69.728088%, 46.209717%)" offset="0.878906"/><stop stop-opacity="1" stop-color="rgb(6.433105%, 69.895935%, 45.97168%)" offset="0.882812"/><stop stop-opacity="1" stop-color="rgb(6.217957%, 70.062256%, 45.732117%)" offset="0.886719"/><stop stop-opacity="1" stop-color="rgb(6.004333%, 70.228577%, 45.492554%)" offset="0.890625"/><stop stop-opacity="1" stop-color="rgb(5.789185%, 70.394897%, 45.252991%)" offset="0.894531"/><stop stop-opacity="1" stop-color="rgb(5.575562%, 70.562744%, 45.014954%)" offset="0.898438"/><stop stop-opacity="1" stop-color="rgb(5.360413%, 70.729065%, 44.775391%)" offset="0.902344"/><stop stop-opacity="1" stop-color="rgb(5.14679%, 70.895386%, 44.537354%)" offset="0.90625"/><stop stop-opacity="1" stop-color="rgb(4.931641%, 71.061707%, 44.297791%)" offset="0.910156"/><stop stop-opacity="1" stop-color="rgb(4.716492%, 71.229553%, 44.058228%)" offset="0.914062"/><stop stop-opacity="1" stop-color="rgb(4.501343%, 71.395874%, 43.818665%)" offset="0.917969"/><stop stop-opacity="1" stop-color="rgb(4.28772%, 71.563721%, 43.580627%)" offset="0.921875"/><stop stop-opacity="1" stop-color="rgb(4.072571%, 71.730042%, 43.341064%)" offset="0.925781"/><stop stop-opacity="1" stop-color="rgb(3.858948%, 71.896362%, 43.103027%)" offset="0.929688"/><stop stop-opacity="1" stop-color="rgb(3.643799%, 72.062683%, 42.863464%)" offset="0.933594"/><stop stop-opacity="1" stop-color="rgb(3.430176%, 72.23053%, 42.623901%)" offset="0.9375"/><stop stop-opacity="1" stop-color="rgb(3.215027%, 72.396851%, 42.384338%)" offset="0.941406"/><stop stop-opacity="1" stop-color="rgb(3.001404%, 72.564697%, 42.146301%)" offset="0.945312"/><stop stop-opacity="1" stop-color="rgb(2.786255%, 72.731018%, 41.906738%)" offset="0.949219"/><stop stop-opacity="1" stop-color="rgb(2.572632%, 72.897339%, 41.668701%)" offset="0.953125"/><stop stop-opacity="1" stop-color="rgb(2.357483%, 73.06366%, 41.429138%)" offset="0.957031"/><stop stop-opacity="1" stop-color="rgb(2.14386%, 73.231506%, 41.189575%)" offset="0.960938"/><stop stop-opacity="1" stop-color="rgb(1.928711%, 73.397827%, 40.950012%)" offset="0.964844"/><stop stop-opacity="1" stop-color="rgb(1.715088%, 73.564148%, 40.711975%)" offset="0.96875"/><stop stop-opacity="1" stop-color="rgb(1.499939%, 73.730469%, 40.472412%)" offset="0.972656"/><stop stop-opacity="1" stop-color="rgb(1.286316%, 73.898315%, 40.234375%)" offset="0.976562"/><stop stop-opacity="1" stop-color="rgb(1.071167%, 74.064636%, 39.994812%)" offset="0.980469"/><stop stop-opacity="1" stop-color="rgb(0.857544%, 74.232483%, 39.755249%)" offset="0.984375"/><stop stop-opacity="1" stop-color="rgb(0.642395%, 74.398804%, 39.515686%)" offset="0.988281"/><stop stop-opacity="1" stop-color="rgb(0.428772%, 74.565125%, 39.277649%)" offset="0.992188"/><stop stop-opacity="1" stop-color="rgb(0.213623%, 74.731445%, 39.038086%)" offset="0.996094"/><stop stop-opacity="1" stop-color="rgb(0%, 74.899292%, 38.798523%)" offset="1"/></linearGradient><clipPath id="782352f3cd"><path d="M 69 251 L 308 251 L 308 332.738281 L 69 332.738281 Z M 69 251 " clip-rule="nonzero"/></clipPath><clipPath id="de24a43f41"><path d="M 52 211 L 324.847656 211 L 324.847656 259 L 52 259 Z M 52 211 " clip-rule="nonzero"/></clipPath><clipPath id="e38ebb8e75"><path d="M 135 42.488281 L 151 42.488281 L 151 121 L 135 121 Z M 135 42.488281 " clip-rule="nonzero"/></clipPath><clipPath id="be7df1ac49"><path d="M 181 42.488281 L 196 42.488281 L 196 121 L 181 121 Z M 181 42.488281 " clip-rule="nonzero"/></clipPath><clipPath id="43a258b4a2"><path d="M 226 42.488281 L 241 42.488281 L 241 121 L 226 121 Z M 226 42.488281 " clip-rule="nonzero"/></clipPath><clipPath id="adde17f7a7"><path d="M 327.730469 130.699219 L 369.730469 130.699219 L 369.730469 328.699219 L 327.730469 328.699219 Z M 327.730469 130.699219 " clip-rule="nonzero"/></clipPath><clipPath id="9ca0be9e7a"><path d="M 5 132 L 52 132 L 52 327 L 5 327 Z M 5 132 " clip-rule="nonzero"/></clipPath><clipPath id="86528ce6d6"><path d="M -70.808594 231.585938 L 26.101562 127.109375 L 130.578125 224.015625 L 33.667969 328.492188 Z M -70.808594 231.585938 " clip-rule="nonzero"/></clipPath><clipPath id="53dba02076"><path d="M -70.808594 231.585938 L 26.101562 127.109375 L 130.578125 224.015625 L 33.667969 328.492188 Z M -70.808594 231.585938 " clip-rule="nonzero"/></clipPath><clipPath id="6809099eb2"><path d="M -70.773438 231.550781 L 26.273438 126.921875 L 130.960938 224.027344 L 33.914062 328.65625 Z M -70.773438 231.550781 " clip-rule="nonzero"/></clipPath><clipPath id="05a1b1956a"><path d="M 11 140 L 29 140 L 29 193 L 11 193 Z M 11 140 " clip-rule="nonzero"/></clipPath><clipPath id="2cecfda3a5"><path d="M -70.808594 231.585938 L 26.101562 127.109375 L 130.578125 224.015625 L 33.667969 328.492188 Z M -70.808594 231.585938 " clip-rule="nonzero"/></clipPath><clipPath id="0c22209748"><path d="M -70.808594 231.585938 L 26.101562 127.109375 L 130.578125 224.015625 L 33.667969 328.492188 Z M -70.808594 231.585938 " clip-rule="nonzero"/></clipPath></defs><rect x="-37.5" width="450" fill="#ffffff" y="-37.499999" height="449.999989" fill-opacity="1"/><rect x="-37.5" fill="url(#e3d07d75a4)" width="450" y="-37.499999" height="449.999989"/><path fill="#ffffff" d="M 303.972656 217.957031 C 302.492188 217.957031 301.167969 216.910156 300.871094 215.402344 L 288.40625 151.644531 C 287.613281 147.601562 285.152344 143.28125 280.59375 143.28125 L 96.074219 143.28125 C 91.523438 143.28125 89.054688 147.601562 88.261719 151.648438 L 75.796875 215.402344 C 75.464844 217.113281 73.800781 218.226562 72.085938 217.898438 C 70.378906 217.5625 69.253906 215.902344 69.589844 214.1875 L 82.058594 150.429688 C 83.660156 142.246094 89.160156 136.960938 96.074219 136.960938 L 280.59375 136.960938 C 287.511719 136.960938 293.015625 142.25 294.609375 150.429688 L 307.078125 214.1875 C 307.410156 215.902344 306.292969 217.5625 304.578125 217.898438 C 304.375 217.9375 304.171875 217.957031 303.972656 217.957031 Z M 303.972656 217.957031 " fill-opacity="1" fill-rule="evenodd"/><g clip-path="url(#782352f3cd)"><path fill="#ffffff" d="M 280.59375 332.574219 L 210.273438 332.574219 C 204.582031 332.574219 200.042969 328.230469 198.964844 321.75 L 196.238281 305.316406 C 194.695312 296.03125 192.171875 294.210938 188.335938 294.210938 C 184.5 294.210938 181.976562 296.03125 180.429688 305.316406 L 177.703125 321.746094 C 176.632812 328.230469 172.085938 332.574219 166.402344 332.574219 L 96.078125 332.574219 C 89.160156 332.574219 83.660156 327.292969 82.058594 319.105469 L 69.59375 255.351562 C 69.257812 253.640625 70.375 251.980469 72.085938 251.644531 C 73.800781 251.308594 75.464844 252.429688 75.796875 254.140625 L 88.265625 317.894531 C 89.054688 321.9375 91.523438 326.253906 96.074219 326.253906 L 166.402344 326.253906 C 169.464844 326.253906 171.046875 323.269531 171.464844 320.714844 L 174.191406 304.28125 C 175.011719 299.375 176.914062 287.890625 188.335938 287.890625 C 199.753906 287.886719 201.65625 299.375 202.472656 304.28125 L 205.203125 320.714844 C 205.628906 323.269531 207.210938 326.253906 210.273438 326.253906 L 280.59375 326.253906 C 285.152344 326.253906 287.613281 321.9375 288.40625 317.894531 L 300.875 254.140625 C 301.210938 252.429688 302.859375 251.308594 304.578125 251.644531 C 306.292969 251.980469 307.410156 253.640625 307.074219 255.351562 L 294.609375 319.105469 C 293.015625 327.292969 287.507812 332.574219 280.59375 332.574219 Z M 280.59375 332.574219 " fill-opacity="1" fill-rule="evenodd"/></g><g clip-path="url(#de24a43f41)"><path fill="#ffffff" d="M 75.644531 217.738281 C 66.253906 217.738281 58.613281 225.378906 58.613281 234.769531 C 58.613281 244.164062 66.253906 251.800781 75.644531 251.800781 L 301.027344 251.800781 C 310.417969 251.800781 318.054688 244.164062 318.054688 234.769531 C 318.058594 225.378906 310.414062 217.738281 301.023438 217.738281 Z M 301.027344 258.125 L 75.644531 258.125 C 62.769531 258.125 52.289062 247.648438 52.289062 234.769531 C 52.289062 221.894531 62.769531 211.414062 75.644531 211.414062 L 301.027344 211.414062 C 313.902344 211.414062 324.378906 221.894531 324.378906 234.769531 C 324.378906 247.644531 313.898438 258.125 301.027344 258.125 Z M 301.027344 258.125 " fill-opacity="1" fill-rule="evenodd"/></g><path fill="#ffffff" d="M 212.984375 240.066406 L 163.691406 240.066406 C 161.101562 240.066406 158.800781 238.714844 157.550781 236.449219 L 146.308594 216.105469 C 145.464844 214.578125 146.015625 212.65625 147.546875 211.8125 C 149.074219 210.96875 150.996094 211.523438 151.847656 213.050781 L 163.085938 233.386719 C 163.222656 233.644531 163.398438 233.742188 163.6875 233.742188 L 212.984375 233.742188 C 213.277344 233.742188 213.445312 233.644531 213.585938 233.386719 L 224.828125 213.050781 C 225.671875 211.523438 227.59375 210.960938 229.121094 211.8125 C 230.648438 212.65625 231.203125 214.578125 230.359375 216.105469 L 219.125 236.449219 C 217.867188 238.714844 215.574219 240.066406 212.984375 240.066406 Z M 212.984375 240.066406 " fill-opacity="1" fill-rule="evenodd"/><path fill="#ffffff" d="M 121.808594 193.628906 C 121.691406 193.628906 121.5625 193.621094 121.4375 193.609375 C 119.707031 193.402344 118.460938 191.828125 118.664062 190.097656 L 121.742188 163.871094 C 121.949219 162.132812 123.511719 160.894531 125.25 161.097656 C 126.984375 161.300781 128.226562 162.871094 128.023438 164.609375 L 124.949219 190.835938 C 124.757812 192.441406 123.394531 193.628906 121.808594 193.628906 Z M 121.808594 193.628906 " fill-opacity="1" fill-rule="evenodd"/><path fill="#ffffff" d="M 166.15625 193.628906 C 166.121094 193.628906 166.078125 193.628906 166.03125 193.628906 C 164.296875 193.554688 162.929688 192.085938 163.003906 190.339844 L 164.023438 164.113281 C 164.097656 162.371094 165.550781 161.039062 167.308594 161.078125 C 169.050781 161.144531 170.414062 162.613281 170.339844 164.359375 L 169.320312 190.589844 C 169.253906 192.289062 167.851562 193.628906 166.15625 193.628906 Z M 166.15625 193.628906 " fill-opacity="1" fill-rule="evenodd"/><path fill="#ffffff" d="M 210.511719 193.628906 C 208.824219 193.628906 207.421875 192.289062 207.355469 190.589844 L 206.328125 164.359375 C 206.261719 162.613281 207.617188 161.144531 209.363281 161.078125 C 211.109375 161.03125 212.578125 162.371094 212.644531 164.113281 L 213.671875 190.339844 C 213.738281 192.085938 212.378906 193.554688 210.632812 193.628906 C 210.597656 193.628906 210.550781 193.628906 210.511719 193.628906 Z M 210.511719 193.628906 " fill-opacity="1" fill-rule="evenodd"/><path fill="#ffffff" d="M 254.859375 193.628906 C 253.28125 193.628906 251.917969 192.441406 251.726562 190.835938 L 248.652344 164.601562 C 248.445312 162.871094 249.683594 161.300781 251.421875 161.097656 C 253.15625 160.894531 254.722656 162.132812 254.925781 163.871094 L 258.003906 190.097656 C 258.207031 191.828125 256.96875 193.402344 255.234375 193.609375 C 255.113281 193.621094 254.984375 193.628906 254.859375 193.628906 Z M 254.859375 193.628906 " fill-opacity="1" fill-rule="evenodd"/><g clip-path="url(#e38ebb8e75)"><path fill="#ffffff" d="M 144.609375 120.84375 C 143.488281 120.84375 142.402344 120.242188 141.828125 119.195312 C 134.289062 105.390625 133.746094 92.339844 140.226562 80.40625 C 145.695312 70.335938 145.175781 59.625 138.632812 47.65625 C 137.800781 46.128906 138.363281 44.207031 139.890625 43.371094 C 141.429688 42.535156 143.351562 43.09375 144.1875 44.628906 C 151.726562 58.433594 152.269531 71.488281 145.785156 83.421875 C 140.324219 93.492188 140.839844 104.199219 147.378906 116.167969 C 148.21875 117.695312 147.652344 119.617188 146.117188 120.453125 C 145.636719 120.71875 145.121094 120.84375 144.609375 120.84375 Z M 144.609375 120.84375 " fill-opacity="1" fill-rule="evenodd"/></g><g clip-path="url(#be7df1ac49)"><path fill="#ffffff" d="M 189.9375 120.84375 C 188.816406 120.84375 187.734375 120.242188 187.15625 119.195312 C 179.621094 105.390625 179.082031 92.34375 185.554688 80.40625 C 191.023438 70.335938 190.5 59.625 183.960938 47.65625 C 183.125 46.128906 183.691406 44.207031 185.226562 43.371094 C 186.753906 42.535156 188.675781 43.09375 189.511719 44.628906 C 197.054688 58.433594 197.59375 71.488281 191.113281 83.421875 C 185.648438 93.492188 186.167969 104.199219 192.707031 116.160156 C 193.542969 117.695312 192.976562 119.617188 191.449219 120.453125 C 190.972656 120.71875 190.449219 120.84375 189.9375 120.84375 Z M 189.9375 120.84375 " fill-opacity="1" fill-rule="evenodd"/></g><g clip-path="url(#43a258b4a2)"><path fill="#ffffff" d="M 235.261719 120.84375 C 234.140625 120.84375 233.058594 120.242188 232.488281 119.195312 C 224.949219 105.390625 224.40625 92.339844 230.886719 80.40625 C 236.347656 70.335938 235.824219 59.625 229.292969 47.65625 C 228.457031 46.128906 229.015625 44.207031 230.550781 43.371094 C 232.082031 42.535156 234 43.09375 234.839844 44.628906 C 242.378906 58.433594 242.917969 71.488281 236.4375 83.421875 C 230.980469 93.492188 231.5 104.199219 238.03125 116.167969 C 238.871094 117.695312 238.308594 119.617188 236.773438 120.453125 C 236.296875 120.71875 235.773438 120.84375 235.261719 120.84375 Z M 235.261719 120.84375 " fill-opacity="1" fill-rule="evenodd"/></g><g clip-path="url(#adde17f7a7)"><path fill="#ffffff" d="M 355.628906 210.992188 C 369.457031 197.269531 369.46875 178.660156 369.464844 177.882812 L 369.464844 133.398438 L 369.0625 132.820312 C 368.757812 132.382812 367.601562 130.941406 365.515625 130.835938 C 363.617188 130.746094 362.171875 131.84375 361.492188 132.824219 L 361.15625 133.308594 L 357.328125 174.175781 C 357.167969 174.511719 356.878906 174.925781 356.558594 175.039062 C 356.015625 175.21875 354.96875 174.839844 354.3125 173.71875 L 353.253906 134.925781 L 353.03125 134.476562 C 352.167969 132.757812 350.382812 131.738281 348.484375 131.875 C 346.765625 132.007812 345.257812 133.078125 344.550781 134.667969 L 344.375 135.0625 L 342.992188 173.714844 C 342.355469 174.804688 341.300781 175.226562 340.746094 175.039062 C 340.414062 174.925781 340.128906 174.519531 339.96875 174.175781 L 336.121094 133.003906 L 335.449219 132.414062 C 335.105469 132.113281 333.871094 131.109375 332.515625 130.90625 C 331.152344 130.703125 329.808594 131.234375 328.515625 132.492188 L 327.832031 133.152344 L 327.832031 177.863281 C 327.828125 178.660156 327.847656 197.277344 341.683594 210.996094 L 341.8125 320.335938 C 341.625 322.601562 342.417969 324.828125 343.992188 326.453125 C 345.382812 327.890625 347.203125 328.695312 349.042969 328.695312 C 349.175781 328.695312 349.304688 328.691406 349.4375 328.679688 C 351.253906 328.566406 353.023438 327.640625 354.292969 326.132812 C 355.644531 324.53125 356.300781 322.417969 356.105469 320.316406 Z M 351.839844 208.417969 L 351.132812 209.085938 L 351.621094 320.445312 L 351.632812 320.675781 C 351.769531 321.953125 351.207031 322.832031 350.863281 323.246094 C 350.386719 323.808594 349.75 324.167969 349.15625 324.203125 C 348.496094 324.257812 347.785156 323.917969 347.21875 323.335938 C 346.535156 322.625 346.191406 321.648438 346.289062 320.648438 L 346.300781 320.539062 L 346.167969 209.078125 L 345.46875 208.414062 C 332.386719 196.011719 332.320312 178.074219 332.324219 177.878906 L 332.324219 140.546875 L 335.5625 175.203125 L 335.660156 175.464844 C 335.902344 176.15625 336.894531 178.472656 339.3125 179.289062 C 342.300781 180.304688 345.796875 178.507812 347.273438 175.195312 L 347.449219 174.800781 L 348.816406 136.589844 L 349.859375 174.796875 L 350.042969 175.203125 C 351.523438 178.503906 355.019531 180.300781 358.003906 179.292969 C 360.429688 178.472656 361.410156 176.152344 361.652344 175.460938 L 361.746094 175.199219 L 364.984375 140.613281 L 364.984375 177.902344 C 364.980469 178.078125 364.96875 195.96875 351.839844 208.417969 Z M 351.839844 208.417969 " fill-opacity="1" fill-rule="nonzero"/></g><g clip-path="url(#9ca0be9e7a)"><g clip-path="url(#86528ce6d6)"><g clip-path="url(#53dba02076)"><g clip-path="url(#6809099eb2)"><path fill="#ffffff" d="M 48.308594 173.320312 C 48.882812 188.582031 42.066406 195.578125 32.507812 197.210938 L 39.058594 311.867188 C 39.300781 316.144531 38.183594 319.96875 36.371094 321.921875 C 32.410156 326.191406 27.625 320.230469 27.480469 312.300781 L 25.410156 197.476562 C 15.886719 196.578125 8.4375 190.253906 7.859375 174.839844 C 7.378906 162.058594 11.75 146.617188 18.574219 139.257812 C 32.65625 124.078125 47.511719 152.105469 48.308594 173.320312 Z M 16.5625 137.390625 C 9.402344 145.113281 4.585938 160.90625 5.113281 174.941406 C 5.800781 193.171875 15.535156 198.457031 22.707031 199.859375 L 24.738281 312.351562 C 24.824219 317.265625 26.414062 321.648438 28.984375 324.082031 C 30.40625 325.429688 32.070312 326.105469 33.792969 326.042969 C 39.640625 325.820312 42.164062 318.105469 41.796875 311.710938 L 35.378906 199.386719 C 56.304688 193.71875 53.382812 164.316406 43.835938 146.21875 C 36.941406 133.152344 26.117188 127.089844 16.5625 137.390625 " fill-opacity="1" fill-rule="nonzero"/></g></g></g></g><g clip-path="url(#05a1b1956a)"><g clip-path="url(#2cecfda3a5)"><g clip-path="url(#0c22209748)"><path fill="#ffffff" d="M 14.199219 185.472656 C 17.042969 191.257812 22.472656 193.386719 28.777344 192.519531 C 26 192.335938 23.234375 191.824219 20.933594 190.484375 C 14.054688 186.53125 13.820312 176.703125 14.320312 168.777344 C 14.917969 161.308594 17.1875 151.566406 20.984375 145.390625 C 22.40625 142.980469 24.09375 140.679688 26.804688 140.027344 C 17.78125 139.835938 6.210938 169.503906 14.199219 185.472656 " fill-opacity="1" fill-rule="nonzero"/></g></g></g></svg>